<svg id="Layer_1" data-name="Layer 1" xmlns="http://www.w3.org/2000/svg" viewBox="0 0 600 225"><defs><style>.cls-1{fill:#010101;}.cls-2{fill:#23b355;}.cls-3{fill:#02abaf;}.cls-4{fill:#4998d3;}.cls-5{fill:#8a278a;}.cls-6{fill:#ed1557;}.cls-7{fill:#f05223;}.cls-8{fill:#f7aa1b;}.cls-9{fill:#a6ce38;}</style></defs><title>Bokeh Logotype - Final</title><path class="cls-1" d="M72,34.49V86.57A35.26,35.26,0,0,1,85.76,75.25a42.21,42.21,0,0,1,18-3.84,46.47,46.47,0,0,1,23.7,6.07,42.81,42.81,0,0,1,16.41,16.94q5.93,10.89,5.92,25.15t-5.92,25.24a42.74,42.74,0,0,1-16.41,17,46.47,46.47,0,0,1-23.7,6.06c-6.76,0-30.06-1.27-32.27-1.27s-16,.2-16,.2V37c.84-.24,2-.57,3.5-.89a63.55,63.55,0,0,1,6.36-1c.63-.08,2.59-.32,5.17-.53Zm46.12,114.24a29.7,29.7,0,0,0,11-11.77,36.55,36.55,0,0,0,4-17.39,36.58,36.58,0,0,0-4-17.39,29.13,29.13,0,0,0-11-11.68,31.95,31.95,0,0,0-31.35,0,28.26,28.26,0,0,0-11,11.68,37,37,0,0,0-4,17.39,37,37,0,0,0,4,17.39,28.8,28.8,0,0,0,11,11.77,31.35,31.35,0,0,0,31.35,0Z"/><path class="cls-1" d="M444.8,108a45.38,45.38,0,0,0-4.64-13.36,43.88,43.88,0,0,0-9.34-12.26,42.09,42.09,0,0,0-6.67-5,44.41,44.41,0,0,0-23.32-6.15,45.34,45.34,0,0,0-23.5,6.15A43.39,43.39,0,0,0,361,94.63,51.51,51.51,0,0,0,355,119.41a50.77,50.77,0,0,0,6.11,25,43,43,0,0,0,17.3,17.21,56.28,56.28,0,0,0,46.22,2.23,40.07,40.07,0,0,0,15.4-11.42l-3.6-4.36h0a8.6,8.6,0,0,0-6.47-2.92,8.43,8.43,0,0,0-4.89,1.56l-.06,0q-8.54,6-20.44,6-13.42,0-22.46-7.58a30,30,0,0,1-10.58-20.06h54.78a67.29,67.29,0,0,0,7.7-.39,14.27,14.27,0,0,0,6.56-3.38,14,14,0,0,0,4.34-7.49A14.74,14.74,0,0,0,444.8,108Zm-16.53-.34a6.79,6.79,0,0,1-2.74,4.11,6.28,6.28,0,0,1-2.48,1c-.25,0-3.56.07-3.56.07H371.57q1.37-12.13,9.38-19.62t19.88-7.49a27.51,27.51,0,0,1,19.88,7.58,27.54,27.54,0,0,1,5.43,6.93C427.72,103.11,428.84,105.15,428.27,107.65Z"/><path class="cls-1" d="M268.08,37c.84-.24,2-.57,3.5-.89a63.55,63.55,0,0,1,6.36-1c.64-.08,2.6-.32,5.17-.53l1.46-.11v84.9L334.21,72.3h19.93l-38.31,39.07,42.09,55.47H337.65l-34.18-44.06S287.54,136.3,285.84,141a18.63,18.63,0,0,0-1.26,6.36c0,8,0,19.45,0,19.45H268.08Z"/><path class="cls-1" d="M458.07,37c.84-.24,2-.57,3.5-.89a63.55,63.55,0,0,1,6.36-1c.63-.08,2.59-.32,5.17-.53l1.46-.11V85.68A34.18,34.18,0,0,1,488,75.16a44.94,44.94,0,0,1,18.64-3.75q17.35,0,27.57,10.44t10.22,30.59v54.4H528V114.4q0-13.74-6.35-20.69t-18.21-7q-13.41,0-21.13,8.12t-7.73,23.27v48.7H458.07Z"/><path class="cls-2" d="M226.81,77.44A67.89,67.89,0,0,0,222.19,72c-5.09-5.41-7.81-6.48-9.41-6.81a13,13,0,0,0-3-.21c-4.29.2-7.24,2.47-9.84,4.47a31.54,31.54,0,0,0-6.77,7.19.4.4,0,0,0-.07.24V103a.41.41,0,0,0,.23.37.41.41,0,0,0,.19,0,.38.38,0,0,0,.25-.08l33-25.27A.41.41,0,0,0,226.81,77.44Z"/><path class="cls-3" d="M250.18,83.85a12.92,12.92,0,0,0-2-2.29c-3.18-2.9-6.87-3.38-10.12-3.8a31.58,31.58,0,0,0-9.88.3.39.39,0,0,0-.22.11L209.53,96.63a.42.42,0,0,0-.1.43.41.41,0,0,0,.34.28L251,102.8H251a.42.42,0,0,0,.41-.36,68.75,68.75,0,0,0,.59-7.13C252.25,87.89,251.08,85.22,250.18,83.85Z"/><path class="cls-4" d="M263.64,120.48c-.2-4.3-2.47-7.24-4.47-9.84a31.57,31.57,0,0,0-7.19-6.78.51.51,0,0,0-.24-.07h-26.1a.42.42,0,0,0-.33.67l25.26,33a.44.44,0,0,0,.34.17.43.43,0,0,0,.25-.09,69.35,69.35,0,0,0,5.46-4.62c5.41-5.09,6.47-7.81,6.8-9.41A12.26,12.26,0,0,0,263.64,120.48Z"/><path class="cls-5" d="M250.54,138.92a.45.45,0,0,0-.12-.21L232,120.25a.42.42,0,0,0-.43-.1.41.41,0,0,0-.28.34l-5.46,41.19a.42.42,0,0,0,.36.47c2.37.32,4.77.52,7.13.6l1.8,0c6.07,0,8.41-1,9.66-1.86a12.41,12.41,0,0,0,2.29-2c2.9-3.18,3.38-6.87,3.8-10.12A31.58,31.58,0,0,0,250.54,138.92Z"/><path class="cls-6" d="M224.57,136a.44.44,0,0,0-.44,0l-33,25.27a.41.41,0,0,0-.08.58,67.58,67.58,0,0,0,4.62,5.46c5.09,5.41,7.8,6.48,9.41,6.81a12.34,12.34,0,0,0,2.41.23l.61,0c4.3-.2,7.24-2.46,9.84-4.47a31.32,31.32,0,0,0,6.77-7.19.41.41,0,0,0,.08-.24v-26.1A.4.4,0,0,0,224.57,136Z"/><path class="cls-7" d="M208.45,142.26a.43.43,0,0,0-.34-.28l-41.19-5.46a.42.42,0,0,0-.47.36,66.13,66.13,0,0,0-.6,7.13c-.22,7.42.94,10.1,1.84,11.46a12.69,12.69,0,0,0,2,2.29c3.18,2.9,6.86,3.38,10.12,3.8a30.9,30.9,0,0,0,4,.26,31.93,31.93,0,0,0,5.9-.56.36.36,0,0,0,.22-.11l18.46-18.46A.42.42,0,0,0,208.45,142.26Z"/><path class="cls-8" d="M192.57,134.86l-25.27-33a.41.41,0,0,0-.58-.08,65.89,65.89,0,0,0-5.46,4.62c-5.41,5.09-6.48,7.81-6.81,9.41a12.8,12.8,0,0,0-.22,3c.2,4.3,2.47,7.24,4.48,9.84a31.16,31.16,0,0,0,7.19,6.78.48.48,0,0,0,.24.07h26.09a.43.43,0,0,0,.38-.23A.43.43,0,0,0,192.57,134.86Z"/><path class="cls-9" d="M191.72,77.17a69,69,0,0,0-7.13-.59c-7.42-.23-10.1.94-11.46,1.84a12.54,12.54,0,0,0-2.3,2c-2.89,3.18-3.37,6.87-3.79,10.12a31.58,31.58,0,0,0,.3,9.88.33.33,0,0,0,.11.21l18.46,18.46a.4.4,0,0,0,.29.12l.14,0a.43.43,0,0,0,.28-.34l5.46-41.19A.42.42,0,0,0,191.72,77.17Z"/></svg>