<?xml version="1.0" standalone="no"?>
<!DOCTYPE svg PUBLIC "-//W3C//DTD SVG 20010904//EN"
 "http://www.w3.org/TR/2001/REC-SVG-20010904/DTD/svg10.dtd">
<svg version="1.0" xmlns="http://www.w3.org/2000/svg"
 width="1004.000000pt" height="1004.000000pt" viewBox="0 0 1004.000000 1004.000000"
 preserveAspectRatio="xMidYMid meet">
<metadata>
Created by potrace 1.11, written by Peter Selinger 2001-2013
</metadata>
<g transform="translate(0.000000,1004.000000) scale(0.100000,-0.100000)"
fill="#000000" stroke="none">
<path d="M5190 10029 c-214 -18 -380 -75 -616 -210 -186 -106 -420 -288 -694
-537 -14 -12 -82 -73 -152 -135 l-127 -112 -1 -1204 0 -1203 27 18 c15 9 32
21 38 26 5 5 105 77 220 160 116 83 233 167 260 188 28 20 75 54 105 76 30 21
60 42 65 47 9 7 180 131 286 207 90 65 743 538 816 592 40 29 108 78 150 108
43 30 80 57 83 60 3 4 27 22 54 41 74 52 99 70 401 289 154 112 296 215 316
229 199 142 325 234 327 242 2 5 -2 15 -10 22 -7 8 -92 97 -188 197 -314 328
-480 491 -644 628 -69 58 -193 145 -264 185 -142 79 -260 102 -452 86z"/>
<path d="M2527 9023 c-1 0 -49 -4 -107 -8 -100 -6 -228 -20 -260 -30 -8 -2
-31 -7 -50 -10 -70 -12 -217 -67 -285 -107 -157 -92 -315 -307 -422 -573 -37
-92 -82 -237 -97 -310 -11 -54 -16 -80 -21 -110 -3 -16 -7 -41 -10 -55 -4 -23
-10 -67 -20 -150 -11 -95 -21 -225 -30 -420 -10 -212 -23 -389 -31 -401 -3 -6
152 -166 966 -989 311 -314 611 -619 668 -676 56 -58 102 -102 102 -99 0 3 7
49 16 103 9 53 18 106 19 117 2 11 6 36 9 55 14 79 25 148 31 190 4 25 10 63
15 85 5 22 12 60 15 85 4 25 8 50 9 55 2 6 6 33 10 60 4 28 11 70 16 95 5 25
12 67 15 94 3 27 8 52 10 56 2 3 6 24 9 46 2 21 7 50 10 64 3 14 7 43 10 65 3
22 12 76 20 120 9 44 18 97 20 117 2 20 7 45 10 55 3 10 7 36 10 58 2 22 7 51
10 65 3 14 8 42 11 63 3 20 7 54 10 75 3 20 10 57 15 82 5 25 12 65 15 90 8
58 18 116 30 180 3 14 7 41 10 60 3 19 12 71 20 115 8 44 17 103 20 130 4 28
10 68 15 90 5 22 11 58 14 80 4 23 9 52 11 65 3 14 12 68 20 120 8 52 17 106
20 120 6 36 53 310 59 345 2 17 14 89 26 160 12 72 23 141 25 155 2 14 13 79
24 146 12 66 23 134 26 150 2 16 7 46 11 67 5 28 3 37 -7 37 -69 0 -452 10
-599 16 -173 6 -440 11 -443 7z"/>
<path d="M6469 8610 c-156 -161 -328 -338 -383 -393 -54 -56 -230 -237 -391
-402 -161 -165 -374 -383 -473 -485 -99 -102 -178 -188 -174 -192 4 -3 30 -9
57 -13 28 -3 61 -8 75 -10 22 -3 69 -10 140 -20 79 -12 262 -39 375 -56 72
-10 150 -22 175 -25 25 -3 81 -11 125 -19 44 -7 105 -16 135 -20 59 -7 100
-13 140 -20 25 -4 79 -12 140 -20 17 -2 43 -6 58 -9 15 -3 47 -8 72 -11 25 -3
70 -10 100 -15 30 -5 78 -12 105 -15 28 -3 59 -8 70 -10 11 -2 40 -7 65 -10
25 -3 56 -7 70 -9 14 -3 43 -7 65 -11 22 -3 54 -7 70 -10 74 -11 112 -17 140
-20 17 -2 46 -6 65 -9 117 -18 180 -27 215 -32 22 -3 52 -7 68 -10 15 -2 39
-6 55 -8 15 -3 45 -7 67 -10 22 -3 74 -11 115 -17 41 -6 86 -12 100 -13 14 -2
39 -6 55 -9 17 -4 50 -9 75 -12 25 -3 56 -8 70 -10 14 -2 45 -7 70 -10 25 -3
70 -10 100 -15 30 -5 75 -11 100 -14 25 -4 56 -8 70 -10 14 -3 61 -10 105 -16
44 -6 91 -13 105 -15 14 -3 43 -7 65 -10 22 -3 65 -10 95 -15 30 -5 75 -11
100 -14 l45 -6 0 568 c0 534 -3 616 -25 752 -5 30 -12 71 -15 90 -17 105 -72
257 -127 347 -33 55 -108 134 -183 193 -99 78 -293 180 -445 233 -83 29 -300
83 -370 91 -25 4 -55 8 -68 11 -13 2 -57 7 -98 10 -42 4 -85 8 -96 10 -20 4
-192 12 -458 20 -74 3 -178 7 -231 10 l-95 6 -285 -291z"/>
<path d="M975 6586 c-238 -228 -576 -564 -621 -616 -268 -313 -359 -544 -320
-810 29 -196 113 -431 218 -615 61 -106 240 -354 308 -426 8 -8 38 -42 67 -75
55 -63 67 -77 183 -204 132 -145 140 -154 188 -212 l47 -58 865 -1 c872 0
1593 0 1598 1 3 0 -47 73 -121 175 -24 33 -146 202 -272 375 -125 173 -244
338 -263 365 -19 28 -65 91 -101 140 -63 85 -143 195 -175 240 -8 11 -180 250
-383 530 -203 281 -426 589 -495 685 -70 96 -131 180 -136 186 -5 5 -22 30
-38 55 -16 24 -32 46 -35 49 -3 3 -66 88 -139 190 -73 102 -140 194 -149 206
-16 20 -21 16 -226 -180z"/>
<path d="M8857 6534 c-1 -1 -119 -5 -262 -8 -143 -4 -321 -9 -395 -11 -74 -2
-220 -7 -325 -10 -104 -3 -262 -8 -350 -10 -88 -3 -230 -7 -315 -10 -748 -21
-710 -19 -712 -29 0 -5 17 -31 39 -60 22 -28 187 -242 367 -476 180 -234 338
-438 351 -455 12 -16 70 -91 127 -165 192 -249 211 -275 235 -305 13 -16 27
-34 31 -40 4 -5 43 -57 87 -115 44 -57 88 -113 97 -125 9 -11 81 -104 160
-206 245 -319 320 -417 339 -441 88 -114 389 -505 452 -588 44 -58 90 -118
103 -133 l23 -28 289 293 c482 487 579 599 703 809 33 57 96 204 104 248 27
130 27 195 0 342 -56 304 -227 624 -499 933 -70 79 -64 73 -292 312 -95 98
-192 201 -216 228 -41 45 -49 50 -92 51 -26 0 -48 0 -49 -1z"/>
<path d="M7128 4943 c-4 -55 -6 -72 -12 -109 -4 -23 -9 -59 -11 -80 -3 -22 -7
-50 -10 -64 -2 -14 -7 -50 -10 -80 -3 -30 -8 -62 -10 -70 -2 -8 -7 -44 -10
-80 -4 -36 -9 -72 -10 -81 -2 -9 -6 -40 -10 -70 -3 -30 -8 -65 -10 -79 -5 -28
-15 -100 -21 -145 -12 -101 -16 -133 -19 -155 -4 -25 -31 -227 -41 -310 -3
-25 -7 -56 -9 -70 -2 -14 -6 -45 -10 -70 -3 -25 -8 -56 -10 -70 -3 -14 -7 -45
-10 -70 -2 -25 -6 -59 -9 -75 -2 -17 -7 -52 -11 -80 -3 -27 -8 -66 -11 -85 -2
-19 -7 -55 -9 -80 -3 -25 -7 -56 -10 -70 -2 -14 -7 -47 -11 -75 -3 -27 -7 -61
-9 -75 -12 -79 -37 -271 -40 -305 -2 -22 -8 -69 -14 -105 -13 -81 -19 -130
-26 -199 -3 -30 -7 -57 -9 -60 -2 -3 -7 -40 -11 -81 -4 -41 -8 -77 -10 -80 -2
-3 -6 -34 -10 -70 -4 -36 -9 -74 -11 -85 -2 -11 -6 -40 -9 -65 -3 -25 -7 -61
-10 -80 -2 -19 -7 -53 -10 -75 -3 -23 -7 -51 -10 -64 -2 -12 -7 -49 -10 -82
-4 -33 -8 -68 -10 -78 -2 -10 -6 -42 -10 -72 -3 -30 -8 -65 -10 -79 -2 -14 -7
-43 -9 -65 -3 -22 -8 -59 -11 -81 l-6 -42 508 3 c511 3 595 6 733 26 41 6 91
13 110 15 89 13 234 59 328 105 84 41 117 64 176 122 85 84 156 189 231 342
50 102 108 256 118 315 3 14 10 45 17 70 7 25 14 54 16 65 1 11 8 48 14 81 28
159 38 299 45 624 3 129 7 289 10 354 l6 119 -38 35 c-34 31 -190 179 -466
442 -49 47 -108 103 -132 125 -23 22 -109 104 -191 182 -82 77 -165 156 -184
174 -19 18 -107 101 -195 185 -88 84 -180 171 -205 194 -25 23 -116 110 -204
194 -87 83 -162 153 -167 154 -5 2 -10 -5 -11 -15z"/>
<path d="M1067 3493 c-6 -10 -19 -712 -17 -918 1 -191 10 -333 25 -415 3 -14
7 -41 10 -60 19 -113 54 -219 109 -325 74 -144 239 -283 470 -395 95 -47 305
-122 371 -133 17 -3 62 -12 100 -20 64 -14 89 -18 195 -32 115 -15 228 -24
380 -30 69 -3 179 -7 245 -10 66 -3 152 -8 190 -11 90 -8 86 -8 111 0 22 7 92
-61 381 -370 423 -451 648 -635 898 -733 83 -32 275 -46 365 -27 14 3 61 13
105 22 338 69 669 266 1087 647 47 42 98 89 114 103 16 14 47 42 69 63 22 20
71 64 110 96 38 33 75 65 81 70 8 8 11 97 12 295 0 157 1 710 1 1229 1 519 0
945 -1 946 -3 3 -60 -37 -198 -139 -25 -18 -184 -134 -355 -256 -312 -225
-500 -361 -718 -519 -65 -47 -128 -93 -141 -101 -23 -16 -84 -60 -201 -145
-38 -29 -153 -112 -255 -185 -102 -73 -203 -146 -225 -162 -56 -41 -296 -215
-320 -232 -11 -8 -155 -112 -320 -231 -165 -120 -322 -233 -350 -253 l-50 -36
35 38 c43 46 535 544 1143 1156 253 254 457 463 455 465 -1 2 -21 6 -43 9 -22
4 -65 11 -95 16 -30 5 -73 12 -95 15 -22 3 -51 7 -65 10 -14 2 -101 16 -195
30 -93 14 -181 28 -195 30 -14 3 -45 7 -70 10 -25 3 -54 8 -66 10 -12 3 -39 7
-60 10 -21 3 -64 10 -94 15 -30 5 -73 12 -95 15 -22 2 -49 6 -60 9 -11 2 -45
7 -75 12 -30 4 -57 8 -60 9 -3 0 -27 4 -55 9 -27 4 -63 10 -80 12 -16 3 -41 7
-55 9 -42 6 -172 26 -235 36 -33 5 -76 12 -95 14 -19 3 -60 9 -90 15 -30 5
-73 12 -95 15 -22 3 -51 7 -65 10 -14 2 -43 6 -65 10 -45 6 -156 24 -195 30
-46 8 -355 56 -390 61 -41 6 -62 9 -155 24 -38 6 -83 13 -100 15 -16 2 -86 13
-155 24 -137 23 -180 29 -225 36 -34 4 -214 32 -260 40 -54 9 -89 15 -130 20
-22 4 -51 8 -65 11 -14 2 -45 7 -69 10 -25 3 -48 7 -52 10 -4 2 -10 1 -12 -3z"/>
</g>
</svg>
